# xmcd
#
# Track frame offsets:
# 150
# 11325
# 25045
# 48028
# 62041
# 74337
# 88900
# 106890
# 125625
# 152115
# 168065
# 181637
# 196124
# 216741
# 232631
# 246216
# 258321
# 270871
# 293104
# 306598
#
# Disc length: 4371 seconds
#
#
# Revision: 1
# Processed by: cddbd v1.5.1PL0 Copyright (c) Steve Scherf et al.
# Submitted via: FreeRIP 2.941 
#
DISCID=09111114
DTITLE=The best de Eva Ayllon - The best de Eva Ayllon
DYEAR=1900
DGENRE=
TTITLE0=Mi cariñito
TTITLE1=Nada Soy
TTITLE2=Homenaje a Lucha Reyes
TTITLE3=Huye de mi
TTITLE4=Yo perdi el corazon
TTITLE5=Nuestro secreto - Somos Amantes
TTITLE6=Enamorada de estar aqui
TTITLE7=Raices de Festejo - Le dije a papa
TTITLE8=Homenaje a los embajadores Criollos
TTITLE9=Mal paso
TTITLE10=Oita No mas
TTITLE11=Rebeca - bandida
TTITLE12=Guarnaguito
TTITLE13=Huellas
TTITLE14=Seleccion de Valses
TTITLE15=Inga
TTITLE16=El Mayoral
TTITLE17=Seleccion de valses (2)
TTITLE18=Sleccion de valses (3)
TTITLE19=Homenaje a Veronika
EXTD=
EXTT0=
EXTT1=
EXTT2=
EXTT3=
EXTT4=
EXTT5=
EXTT6=
EXTT7=
EXTT8=
EXTT9=
EXTT10=
EXTT11=
EXTT12=
EXTT13=
EXTT14=
EXTT15=
EXTT16=
EXTT17=
EXTT18=
EXTT19=
PLAYORDER=
